# xmcd
#
# Track frame offsets:
#	150
#	20475
#	43585
#	68170
#	89620
#	117255
#	141855
#	166295
#	189835
#	219855
#	235240
#	246360
#	257925
#	290345
#	295905
#	313360
#	339125
#
# Disc length: 4759 seconds
#
# Revision: 4
# Processed by: cddbd v1.5.1PL0 Copyright (c) Steve Scherf et al.
# Submitted via: EasyCDDAExtractor 5.1.0
#
DISCID=fd129511
DTITLE=Ozzy Osbourne - Leeds 21-07-88
DYEAR=1988
DGENRE=Hard Rock
TTITLE0=Bark At The Moon
TTITLE1=Suicide Solution
TTITLE2=Mr Crowley
TTITLE3=Demon Alcohol
TTITLE4=Shot In The Dark
TTITLE5=I Don't Know
TTITLE6=Flying High Again
TTITLE7=Bloodbath In Paradise
TTITLE8=Zakk Wylde Solo
TTITLE9=Sweet Leaf
TTITLE10=War Pigs
TTITLE11=Tattoed Dancer
TTITLE12=Randy Castillo Solo
TTITLE13=Tattoed Dancer Reprise
TTITLE14=Iron Man
TTITLE15=Crazy Train
TTITLE16=Paranoid
EXTD=
EXTT0=
EXTT1=
EXTT2=
EXTT3=
EXTT4=
EXTT5=
EXTT6=
EXTT7=
EXTT8=
EXTT9=
EXTT10=
EXTT11=
EXTT12=
EXTT13=
EXTT14=
EXTT15=
EXTT16=
PLAYORDER=
